<?xml version="1.0" encoding="UTF-8"?>
<svg id="Layer_1" xmlns="http://www.w3.org/2000/svg" version="1.1" xmlns:xlink="http://www.w3.org/1999/xlink" viewBox="0 0 1000 1000">
  <!-- Generator: Adobe Illustrator 29.5.0, SVG Export Plug-In . SVG Version: 2.1.0 Build 137)  -->
  <defs>
    <style>
      .st0, .st1, .st2, .st3, .st4 {
        fill: none;
      }

      .st0, .st1, .st3 {
        stroke: #3a3a3c;
      }

      .st0, .st1, .st3, .st4 {
        stroke-miterlimit: 10;
      }

      .st0, .st4 {
        stroke-width: 4px;
      }

      .st5, .st6 {
        fill: #3a3a3c;
      }

      .st7 {
        fill: url(#linear-gradient1);
      }

      .st8 {
        fill: #e5e5e5;
      }

      .st9 {
        fill: url(#radial-gradient);
      }

      .st3 {
        stroke-width: 2px;
      }

      .st4 {
        stroke: #1d1d1b;
      }

      .st10 {
        fill: url(#linear-gradient);
      }

      .st6 {
        font-family: PressStart2P-Regular, 'Press Start 2P';
        font-size: 76.9519px;
      }

      .st11 {
        fill: #aeaeaf;
      }
    </style>
    <radialGradient id="radial-gradient" cx="493.38" cy="486.5277" fx="493.38" fy="486.5277" r="139.5117" gradientUnits="userSpaceOnUse">
      <stop offset="0" stop-color="#ffce00"/>
      <stop offset=".5137" stop-color="#ff6700"/>
      <stop offset="1" stop-color="#e30613"/>
    </radialGradient>
    <linearGradient id="linear-gradient" x1="714.6615" y1="535.8536" x2="861.6209" y2="535.8536" gradientUnits="userSpaceOnUse">
      <stop offset=".0907" stop-color="#ff6700"/>
      <stop offset=".3289" stop-color="#f54406"/>
      <stop offset=".6121" stop-color="#eb220d"/>
      <stop offset=".8461" stop-color="#e50d11"/>
      <stop offset="1" stop-color="#e30613"/>
    </linearGradient>
    <linearGradient id="linear-gradient1" x1="84.6445" y1="524.8612" x2="274.9245" y2="524.8612" xlink:href="#linear-gradient"/>
  </defs>
  <polygon class="st11" points="426.1229 360.842 149.8233 131.8042 78.3247 375.3841 341.2941 600.7864 426.1229 360.842"/>
  <polygon class="st9" points="645.466 372.9604 556.991 612.2135 341.2941 600.7864 426.1229 360.842 645.466 372.9604"/>
  <polygon class="st5" points="642.0079 371.0157 367.7469 142.0402 155.6051 133.7253 426.5008 362.1649 642.0079 371.0157"/>
  <path class="st5" d="M403.117,504.5914c2.4237-24.2368,10.8875-50.4377,30.277-52.8614s126.0314-2.4237,134.5143,23.025c8.4829,25.4486,8.4829,33.9315-2.4237,47.2618s-25.6904,21.9762-42.4144,20.6013c-14.5421-6.0592-25.4486-16.9658-29.0842-16.9658h-18.1776l-27.8723,12.1184-29.0842-6.0592-15.7349-27.1201Z"/>
  <polygon class="st5" points="589.7213 610.4811 697.5751 465.0603 748.613 498.8276 589.7213 610.4811"/>
  <path class="st10" d="M714.9748,575.6643l110.3627-80.9941,36.2835,51.0236-146.038,31.3243c-.7999.1716-1.2677-.8697-.6081-1.3538Z"/>
  <polygon class="st5" points="200.0146 600.119 41.9695 551.101 41.9695 604.4219 200.0146 600.119"/>
  <path class="st11" d="M288.1721,554.7646l-52.7121,120.348s-31.5078,10.9066-52.1091-3.6355c-20.6013-14.5421-53.321-36.3552-54.5328-48.4736s7.1336-20.3333,7.1336-20.3333l66.7887-.2679-56.9565-21.8131,12.278-26.9583,106.8661,35.1496-1.9843-3.1181-88.0757-71.7244,21.4616-37.6929,91.8425,78.5197Z"/>
  <polyline class="st5" points="233.4403 680.7679 169.2127 815.2822 144.9759 829.8242 111.2902 826.6072 85.5957 811.6466 67.4181 791.0453 62.5708 769.2322 74.6892 736.5125 130.0933 615.804 136.4294 627.7491 157.0943 652.8956 193.4495 669.8613 237.0758 673.4968"/>
  <polygon class="st8" points="540.0302 480.8271 542.766 477.7005 547.0652 479.2638 548.3926 483.4733 545.6996 486.308 542.5815 486.4497 540.5973 484.182 540.0302 480.8271"/>
  <polygon class="st8" points="534.7863 488.0087 534.5028 491.9772 531.2429 494.1032 528.9752 493.3946 526.7419 490.9887 526.7419 487.8621 529.4777 485.5171 532.2136 485.5171 534.7863 488.0087"/>
  <polygon class="st8" points="549.6681 491.4103 552.9276 490.9887 555.6635 494.1154 554.8818 498.4145 551.9359 499.4891 549.5264 499.2056 547.456 497.2421 547.4004 494.6702 549.6681 491.4103"/>
  <polygon class="st8" points="539.2485 499.1962 541.5935 500.3687 543.1568 503.4954 541.9844 506.622 539.2485 507.7945 535.731 507.0128 534.5028 504.308 535.0697 501.1898 537.054 499.4891 539.2485 499.1962"/>
  <polygon class="st8" points="443.5056 480.097 445.0204 475.5526 448.05 473.7348 451.6855 474.9467 453.2003 479.4911 452.5944 483.1266 456.2299 484.0355 458.3506 487.671 456.928 490.182 451.9885 490.7006 450.1248 490.182 448.05 494.3361 445.3233 495.8509 442.2937 494.942 441.0819 492.2154 441.0819 487.671 437.1434 486.4591 434.1138 483.4295 435.0227 480.7029 438.0523 479.4911 443.5056 480.097"/>
  <polygon class="st8" points="561.849 517.1694 567.6052 513.231 567.3023 521.7138 554.8809 535.65 534.928 541.0166 520.9494 540.8003 509.5579 536.4812 496.1067 526.5612 473.9906 526.2582 446.7242 537.1648 430.4713 533.3631 414.6104 527.1671 403.0979 510.2014 403.4004 494.6702 411.5808 505.9599 417.5737 513.9457 426.7288 518.9872 441.5738 523.8346 458.8426 521.7138 472.1728 514.1398 478.535 513.231 503.0747 515.3517 511.6839 524.0087 523.7311 528.4024 537.9044 528.9694 555.1957 523.1583 561.849 517.1694"/>
  <path class="st0" d="M639.4068,371.412l-206.0129-11.9164c-7.877-.3787-8.4829,2.1965-10.3006,7.574l-80.4359,226.1597c-.8444,2.3401-3.484,8.0284,3.6355,8.9373l205.8614,9.1898c4.2414,0,5.6553.202,7.0691-3.8375l51.0887-139.7132,31.5184-86.1941c2.3227-6.3622,4.09-10.3006-2.4237-10.1997Z"/>
  <path class="st0" d="M419.7102,355.0521L153.6052,133.1483c-2.1316-1.779-5.3889-.7632-6.1313,1.9121l-68.1393,234.9377c-1.6158,5.4533.4039,7.0691,1.8178,8.5839l258.5259,219.4441c.202-.8584.6059.7069,2.5752-3.888l80.9913-227.3715c2.8276-8.1799-.202-8.6849-3.5345-11.7145Z"/>
  <path class="st0" d="M643.8414,372.2135c.1722.0098-.1718-1.1385-.304-1.2493l-267.6549-224.3418c-3.5688-3.0162-8.036-4.7656-12.704-4.9748l-210.2247-9.4225c-1.9612.0211-1.2118-.1767.4292.8331l268.2712,223.635c3.1053,2.4237,3.888,2.247,8.4829,2.4994l213.7043,13.0209Z"/>
  <path class="st4" d="M421.2013,531.0616"/>
  <ellipse class="st0" cx="425.4412" cy="359.9879" rx=".6817" ry=".6438"/>
  <path class="st0" d="M239.3985,668.7168c-16.0569,15.7539-100.2798-5.7562-108.4597-55.1387"/>
  <path class="st0" d="M556.8984,462.5259c-17.2565-10.3903-106.273-14.2873-121.9668-12.0356-26.3734,3.784-45.7567,57.2313-20.2046,76.04,25.552,18.8087,51.2527,5.5008,60.5909-.8108,3.6138.3509,19.6968,1.3436,22.9189,1.7227,12.7668,19.0489,41.0347,14.4048,51.2696,10.1402,24.5679-10.2366,35.2922-58.2575,7.3919-75.0565Z"/>
  <path class="st1" d="M443.097,480.5741c2.2531-10.4294,12.234-8.1452,9.4659,2.0043,9.2171,2.9677,7.5774,9.8851-2.1283,7.6721-3.3405,8.3867-10.7775,7.0533-9.1505-2.6569-10.9134-2.0845-8.1944-10.3381,1.8129-7.0194Z"/>
  <g>
    <circle class="st3" cx="544.1478" cy="482.2148" r="4.304"/>
    <circle class="st3" cx="551.5083" cy="495.3051" r="4.304"/>
    <circle class="st3" cx="530.8855" cy="489.4436" r="4.304"/>
    <circle class="st3" cx="538.73" cy="503.3081" r="4.304"/>
  </g>
  <path class="st0" d="M697.5751,464.3197l-106.1418,144.7388c-.0922.1257.063.2835.1902.1935l156.8489-111.0007-50.8973-33.9315Z"/>
  <path class="st0" d="M272.2192,593.9193c5.9739-14.1212,12.6866-30.6634,15.9559-39.3175l-93.3118-79.1736s-9.4052,15.6909-19.9953,38.5096l97.3512,79.9815Z"/>
  <path class="st2" d="M830.8886,497.3252l-121.2143,81.5645c-.4441.2988-.1228.9889.3917.8414l147.779-42.3597c.3072-.0881.4388-.4506.2595-.7151l-26.5648-39.2048c-.1452-.2143-.4364-.2708-.6512-.1262Z"/>
  <path class="st0" d="M158.7683,553.2045c-4.2936,9.2694-8.8029,19.011-13.4267,29.0089-.0136.0295.0017.0645.0327.074l58.1023,17.9287c.0584.018.046.104-.0151.1048l-66.8838.9258c-.0206.0003-.0392.0123-.0479.031-31.8272,68.9016-66.0936,143.5646-72.7472,159.9428-15.754,38.7789,71.4985,99.3708,107.8537,49.6854,8.7043-11.8959,69.1864-143.3491,101.3907-219.0065.0121-.0283-4.4144-2.0093-4.4434-2.0197l-109.7487-36.7029c-.0261-.0094-.055.0022-.0667.0275Z"/>
  <path class="st0" d="M180.9587,593.3435l-139.5951-43.589.6059,55.1387,138.353-6.5882c2.8367-.1351,3.3471-4.115.6362-4.9615Z"/>
  <path class="st2" d="M271.1642,590.1977l-166.583-131.6006-17.3697,69.0749,182.8188,63.943c.0837.0296,1.2028-1.3615,1.1339-1.4173Z"/>
  <path class="st0" d="M415.3146,468.212c-30.3176,39.942,27.0801,71.9957,57.034,44.848,17.1042,1.0589,20.145,1.3236,30.7876,2.0296,8.0026,18.7807,71.2944,26.177,67.1246-31.5251"/>
  <path class="st11" d="M212.487,732.7804s-2.0787,4.9134-4.7244,9.4488c-38.5183,2.9395-92.1101-12.814-112.9134-55.2283,2.5512-6.0945,4.31-9.2586,5.2441-11.4803,3.8375,27.4684,60.0826,69.1763,112.3937,57.2598Z"/>
  <path class="st7" d="M273.9421,590.3668l-167.1874-135.6652-22.1102,79.0866,186.8398,61.0899c2.7545.9006,4.7081-2.6853,2.4578-4.5113Z"/>
</svg>